<svg width="37" height="19" viewBox="0 0 37 19" fill="none" xmlns="http://www.w3.org/2000/svg">
<path d="M0 0C3.31371 0 6 2.68629 6 6V19C2.68629 19 0 16.3137 0 13V0Z" fill="white"/>
<path d="M14.6709 13.5C14.6709 16.5376 12.2085 19 9.17092 19C6.13336 19 7.17093 16.5376 7.17093 13.5C7.17093 10.4624 6.13336 8 9.17092 8C12.2085 8 14.6709 10.4624 14.6709 13.5Z" fill="white"/>
<path d="M31 9C34.3137 9 37 11.6863 37 15V19C33.6863 19 31 16.3137 31 13V9Z" fill="white"/>
<path d="M24 14C24 16.2091 25.9261 18 28.302 18C30.6779 18 29.8663 16.2091 29.8663 14C29.8663 11.7909 30.6779 10 28.302 10C25.9261 10 24 11.7909 24 14Z" fill="white"/>
<circle cx="19.5" cy="16.5" r="2.5" fill="white"/>
</svg>
